<svg width="28px" height="28px" viewBox="0 0 28 28" version="1.1" xmlns="http://www.w3.org/2000/svg" xmlns:xlink="http://www.w3.org/1999/xlink">
    <defs>
        <rect id="path-1" x="0" y="0" width="1366" height="93"></rect>
        <filter x="-1.7%" y="-23.1%" width="103.4%" height="150.5%" filterUnits="objectBoundingBox" id="filter-2">
            <feOffset dx="0" dy="2" in="SourceAlpha" result="shadowOffsetOuter1"></feOffset>
            <feGaussianBlur stdDeviation="7.5" in="shadowOffsetOuter1" result="shadowBlurOuter1"></feGaussianBlur>
            <feColorMatrix values="0 0 0 0 0   0 0 0 0 0   0 0 0 0 0  0 0 0 0.168897509 0" type="matrix" in="shadowBlurOuter1"></feColorMatrix>
        </filter>
    </defs>
    <g id="Symbols" stroke="none" stroke-width="1" fill="none" fill-rule="evenodd">
        <g id="COs" transform="translate(-32.000000, -33.000000)">
            <g id="Header">
                <g id="bg">
                    <use fill="black" fill-opacity="1" filter="url(#filter-2)" xlink:href="#path-1"></use>
                    <use fill="#1C1C1B" fill-rule="evenodd" xlink:href="#path-1"></use>
                </g>
                <rect id="Rectangle" fill="#000000" opacity="0.157498" x="0" y="0" width="93" height="93"></rect>
                <g id="mogul-logo" transform="translate(46.000000, 47.000000) rotate(-360.000000) translate(-46.000000, -47.000000) translate(32.000000, 33.000000)">
                    <g id="Group-16" transform="translate(0.000000, 0.000000)">
                        <polygon id="Clip-15" points="20.0756133 0.341310541 13.9399711 6.39145299 7.80432902 0.341310541 0 0.341310541 0.03001443 0.37150997 0.03001443 27.8039886 0.06002886 27.8039886 13.1007215 14.9304843 9.191342 11.0746439 5.54862916 14.6666667 5.54862916 5.81310542 10.0380952 10.239886 10.0207792 10.2564103 13.9295815 14.1122507 13.9474748 14.0951567 13.9572872 14.1054131 17.8591631 10.2575499 17.8464647 10.245584 22.3613276 5.78917378 22.3613276 14.6968661 18.6886003 11.0752137 14.7867244 14.9236467 22.3613276 22.3925926 22.3613276 22.3937322 27.8476191 27.8039886 27.8787879 27.8039886 27.8787879 0.341310541"></polygon>
                        <polygon id="Fill-14" fill="#DBA628" fill-rule="nonzero" points="20.0756133 0.341310541 13.9399711 6.39145299 7.80432902 0.341310541 0 0.341310541 0.03001443 0.37150997 0.03001443 27.8039886 0.06002886 27.8039886 13.1007215 14.9304843 9.191342 11.0746439 5.54862916 14.6666667 5.54862916 5.81310542 10.0380952 10.239886 10.0207792 10.2564103 13.9295815 14.1122507 13.9474748 14.0951567 13.9572872 14.1054131 17.8591631 10.2575499 17.8464647 10.245584 22.3613276 5.78917378 22.3613276 14.6968661 18.6886003 11.0752137 14.7867244 14.9236467 22.3613276 22.3925926 22.3613276 22.3937322 27.8476191 27.8039886 27.8787879 27.8039886 27.8787879 0.341310541"></polygon>
                    </g>
                </g>
            </g>
        </g>
    </g>
</svg>