<svg width="11px" height="12px" viewBox="0 0 11 12" version="1.1" xmlns="http://www.w3.org/2000/svg" xmlns:xlink="http://www.w3.org/1999/xlink">
    <g id="Symbols" stroke="none" stroke-width="1" fill="none" fill-rule="evenodd">
        <g id="COs" transform="translate(-860.000000, -224.000000)">
            <g id="tooltip" transform="translate(840.000000, 207.000000)">
                <g id="top" transform="translate(20.000000, 11.000000)">
                    <g id="mogul-logo" transform="translate(0.000000, 6.387207)">
                        <g id="Group-16">
                            <polygon id="Clip-15" points="7.88684807 0.134086284 5.47641723 2.51092796 3.0659864 0.134086284 0 0.134086284 0.0117913832 0.145950345 0.0117913832 10.9229955 0.0235827664 10.9229955 5.14671201 5.86554742 3.61088436 4.35075296 2.1798186 5.76190477 2.1798186 2.28371998 3.94353741 4.02281237 3.9367347 4.02930403 5.4723356 5.54409849 5.47936509 5.53738299 5.48321996 5.54141229 7.01609977 4.02975173 7.01111111 4.02505087 8.78480726 2.27431827 8.78480726 5.77376882 7.34195011 4.35097681 5.8090703 5.86286122 8.78480726 8.79708995 8.78480726 8.79753765 10.9401361 10.9229955 10.952381 10.9229955 10.952381 0.134086284"></polygon>
                            <polygon id="Fill-14" fill="#DBA628" fill-rule="nonzero" points="7.88684807 0.134086284 5.47641723 2.51092796 3.0659864 0.134086284 0 0.134086284 0.0117913832 0.145950345 0.0117913832 10.9229955 0.0235827664 10.9229955 5.14671201 5.86554742 3.61088436 4.35075296 2.1798186 5.76190477 2.1798186 2.28371998 3.94353741 4.02281237 3.9367347 4.02930403 5.4723356 5.54409849 5.47936509 5.53738299 5.48321996 5.54141229 7.01609977 4.02975173 7.01111111 4.02505087 8.78480726 2.27431827 8.78480726 5.77376882 7.34195011 4.35097681 5.8090703 5.86286122 8.78480726 8.79708995 8.78480726 8.79753765 10.9401361 10.9229955 10.952381 10.9229955 10.952381 0.134086284"></polygon>
                        </g>
                    </g>
                </g>
            </g>
        </g>
    </g>
</svg>