<svg width="16px" height="16px" viewBox="0 0 16 16" version="1.1" xmlns="http://www.w3.org/2000/svg" xmlns:xlink="http://www.w3.org/1999/xlink">
    <defs>
        <rect id="path-1" x="0" y="0" width="1366" height="93"></rect>
        <filter x="-1.7%" y="-23.1%" width="103.4%" height="150.5%" filterUnits="objectBoundingBox" id="filter-2">
            <feOffset dx="0" dy="2" in="SourceAlpha" result="shadowOffsetOuter1"></feOffset>
            <feGaussianBlur stdDeviation="7.5" in="shadowOffsetOuter1" result="shadowBlurOuter1"></feGaussianBlur>
            <feColorMatrix values="0 0 0 0 0   0 0 0 0 0   0 0 0 0 0  0 0 0 0.168897509 0" type="matrix" in="shadowBlurOuter1"></feColorMatrix>
        </filter>
    </defs>
    <g id="Symbols" stroke="none" stroke-width="1" fill="none" fill-rule="evenodd">
        <g id="COs" transform="translate(-441.000000, -28.000000)">
            <g id="Header">
                <path d="M449,44 C450.104167,44 451.143229,43.7916667 452.117188,43.375 C453.091146,42.9583333 453.940104,42.3880208 454.664062,41.6640625 C455.388021,40.9401042 455.958333,40.0911458 456.375,39.1171875 C456.791667,38.1432292 457,37.1041667 457,36 C457,34.8958333 456.791667,33.8567708 456.375,32.8828125 C455.958333,31.9088542 455.388021,31.0598958 454.664062,30.3359375 C453.940104,29.6119792 453.091146,29.0416667 452.117188,28.625 C451.143229,28.2083333 450.104167,28 449,28 C447.895833,28 446.856771,28.2083333 445.882812,28.625 C444.908854,29.0416667 444.059896,29.6119792 443.335938,30.3359375 C442.611979,31.0598958 442.041667,31.9088542 441.625,32.8828125 C441.208333,33.8567708 441,34.8958333 441,36 C441,37.1041667 441.208333,38.1432292 441.625,39.1171875 C442.041667,40.0911458 442.611979,40.9401042 443.335938,41.6640625 C444.059896,42.3880208 444.908854,42.9583333 445.882812,43.375 C446.856771,43.7916667 447.895833,44 449,44 Z M449,43.015625 C448.03125,43.015625 447.122396,42.8307292 446.273438,42.4609375 C445.424479,42.0911458 444.684896,41.5885417 444.054688,40.953125 C443.424479,40.3177083 442.924479,39.5755208 442.554688,38.7265625 C442.184896,37.8776042 442,36.96875 442,36 C442,35.03125 442.184896,34.1223958 442.554688,33.2734375 C442.924479,32.4244792 443.424479,31.6848958 444.054688,31.0546875 C444.684896,30.4244792 445.424479,29.9244792 446.273438,29.5546875 C447.122396,29.1848958 448.03125,29 449,29 C449.96875,29 450.877604,29.1848958 451.726562,29.5546875 C452.575521,29.9244792 453.315104,30.4244792 453.945312,31.0546875 C454.575521,31.6848958 455.075521,32.4244792 455.445312,33.2734375 C455.815104,34.1223958 456,35.03125 456,36 C456,36.96875 455.815104,37.8776042 455.445312,38.7265625 C455.075521,39.5755208 454.575521,40.3177083 453.945312,40.953125 C453.315104,41.5885417 452.575521,42.0911458 451.726562,42.4609375 C450.877604,42.8307292 449.96875,43.015625 449,43.015625 Z M449.484375,38 C449.484375,37.8229167 449.489583,37.6640625 449.5,37.5234375 C449.510417,37.3828125 449.526042,37.2708333 449.546875,37.1875 C449.567708,37.1041667 449.611979,37.0130208 449.679688,36.9140625 C449.747396,36.8151042 449.838542,36.7083333 449.953125,36.59375 C450.182292,36.3645833 450.393229,36.1380208 450.585938,35.9140625 C450.778646,35.6901042 450.947917,35.4739583 451.09375,35.265625 C451.229167,35.046875 451.333333,34.8177083 451.40625,34.578125 C451.479167,34.3385417 451.515625,34.0833333 451.515625,33.8125 C451.515625,33.4479167 451.460938,33.1223958 451.351562,32.8359375 C451.242188,32.5494792 451.078125,32.3072917 450.859375,32.109375 C450.630208,31.9010417 450.361979,31.7473958 450.054688,31.6484375 C449.747396,31.5494792 449.390625,31.5 448.984375,31.5 C448.619792,31.5 448.286458,31.546875 447.984375,31.640625 C447.682292,31.734375 447.411458,31.8802083 447.171875,32.078125 C446.932292,32.2760417 446.755208,32.5520833 446.640625,32.90625 C446.526042,33.2604167 446.473958,33.5989583 446.484375,33.921875 L446.5,33.96875 L447.65625,33.96875 C447.65625,33.7708333 447.6875,33.5520833 447.75,33.3125 C447.8125,33.0729167 447.911458,32.90625 448.046875,32.8125 C448.171875,32.7083333 448.3125,32.6302083 448.46875,32.578125 C448.625,32.5260417 448.796875,32.5 448.984375,32.5 C449.203125,32.5 449.393229,32.53125 449.554688,32.59375 C449.716146,32.65625 449.854167,32.7447917 449.96875,32.859375 C450.083333,32.9739583 450.169271,33.1145833 450.226562,33.28125 C450.283854,33.4479167 450.3125,33.6354167 450.3125,33.84375 C450.3125,34.03125 450.291667,34.2005208 450.25,34.3515625 C450.208333,34.5026042 450.145833,34.6458333 450.0625,34.78125 C449.979167,34.90625 449.864583,35.0598958 449.71875,35.2421875 C449.572917,35.4244792 449.401042,35.6354167 449.203125,35.875 C448.994792,36.0625 448.825521,36.2317708 448.695312,36.3828125 C448.565104,36.5338542 448.479167,36.6666667 448.4375,36.78125 C448.385417,36.8958333 448.346354,37.0546875 448.320312,37.2578125 C448.294271,37.4609375 448.28125,37.7083333 448.28125,38 L449.484375,38 Z M449.515625,40.5 L449.515625,39.234375 L448.265625,39.234375 L448.265625,40.5 L449.515625,40.5 Z" id="î" fill="#656565" fill-rule="nonzero"></path>
            </g>
        </g>
    </g>
</svg>