<svg width="20px" height="21px" viewBox="0 0 20 21" version="1.1" xmlns="http://www.w3.org/2000/svg" xmlns:xlink="http://www.w3.org/1999/xlink">
    <g id="app" stroke="none" stroke-width="1" fill="none" fill-rule="evenodd">
        <g id="[Private]-Simulator-params" transform="translate(-1327.000000, -115.000000)" fill-rule="nonzero">
            <g id="params" transform="translate(1327.000000, 115.000000)">
                <path fill="#757575" d="M12.016,20.584 C12.128,20.584 12.228,20.544 12.316,20.464 C12.404,20.384 12.464,20.28 12.496,20.152 L12.496,20.152 L12.856,17.536 C13.352,17.344 13.92,17.016 14.56,16.552 L14.56,16.552 L17.032,17.536 C17.16,17.584 17.276,17.592 17.38,17.56 C17.484,17.528 17.568,17.456 17.632,17.344 L17.632,17.344 L19.648,13.888 C19.712,13.776 19.736,13.656 19.72,13.528 C19.704,13.4 19.648,13.296 19.552,13.216 L19.552,13.216 L17.464,11.584 C17.496,11.36 17.512,11.032 17.512,10.6 C17.512,10.168 17.496,9.84 17.464,9.616 L17.464,9.616 L19.552,7.984 C19.648,7.904 19.704,7.8 19.72,7.672 C19.736,7.544 19.712,7.424 19.648,7.312 L19.648,7.312 L17.632,3.856 C17.568,3.744 17.484,3.672 17.38,3.64 C17.276,3.608 17.16,3.616 17.032,3.664 L17.032,3.664 L14.56,4.648 C14.048,4.232 13.48,3.904 12.856,3.664 L12.856,3.664 L12.496,1.048 C12.464,0.92 12.404,0.816 12.316,0.736 C12.228,0.656 12.128,0.616 12.016,0.616 L12.016,0.616 L7.984,0.616 C7.872,0.616 7.772,0.656 7.684,0.736 C7.596,0.816 7.544,0.92 7.528,1.048 L7.528,1.048 L7.144,3.664 C6.6,3.888 6.04,4.216 5.464,4.648 L5.464,4.648 L2.968,3.664 C2.712,3.552 2.512,3.616 2.368,3.856 L2.368,3.856 L0.352,7.312 C0.288,7.424 0.264,7.544 0.28,7.672 C0.296,7.8 0.352,7.904 0.448,7.984 L0.448,7.984 L2.56,9.616 C2.528,9.84 2.512,10.168 2.512,10.6 C2.512,11.032 2.528,11.36 2.56,11.584 L2.56,11.584 L0.448,13.216 C0.352,13.296 0.296,13.4 0.28,13.528 C0.264,13.656 0.288,13.776 0.352,13.888 L0.352,13.888 L2.368,17.344 C2.512,17.584 2.712,17.648 2.968,17.536 L2.968,17.536 L5.464,16.552 C5.912,16.936 6.472,17.264 7.144,17.536 L7.144,17.536 L7.528,20.152 C7.544,20.28 7.596,20.384 7.684,20.464 C7.772,20.544 7.872,20.584 7.984,20.584 L7.984,20.584 L12.016,20.584 Z M10,14.104 C9.376,14.104 8.796,13.944 8.26,13.624 C7.724,13.304 7.296,12.876 6.976,12.34 C6.656,11.804 6.496,11.224 6.496,10.6 C6.496,9.976 6.656,9.392 6.976,8.848 C7.296,8.304 7.724,7.872 8.26,7.552 C8.796,7.232 9.376,7.072 10,7.072 C10.624,7.072 11.208,7.232 11.752,7.552 C12.296,7.872 12.728,8.304 13.048,8.848 C13.368,9.392 13.528,9.976 13.528,10.6 C13.528,11.224 13.368,11.804 13.048,12.34 C12.728,12.876 12.296,13.304 11.752,13.624 C11.208,13.944 10.624,14.104 10,14.104 Z" id=""></path>
            </g>
        </g>
    </g>
</svg>