<svg viewBox="-0.567 -0.608 32 32">
	<path fill="none" d="M22.477-0.181l-7.042,6.944L8.391-0.181h-8.958l0.034,0.034v31.488h0.034L14.47,16.564l-4.487-4.426
		l-4.181,4.123V6.1l5.152,5.081l-0.02,0.019l4.487,4.427l0.021-0.021l0.01,0.013l4.479-4.417l-0.014-0.015l5.182-5.115v10.225
		l-4.215-4.157l-4.479,4.417l8.693,8.574v0.001l6.297,6.21h0.037V-0.181H22.477z"/>
	<path fill="#DBA628" d="M22.477-0.181l-7.042,6.944L8.391-0.181h-8.958l0.034,0.034v31.488h0.034L14.47,16.564l-4.487-4.426
		l-4.181,4.123V6.1l5.152,5.081l-0.02,0.019l4.487,4.427l0.021-0.021l0.01,0.013l4.479-4.417l-0.014-0.015l5.182-5.115v10.225
		l-4.215-4.157l-4.479,4.417l8.693,8.574v0.001l6.297,6.21h0.037V-0.181H22.477z"/>
</svg>
