<svg width="84" height="36" viewBox="0 0 84 36" xmlns="http://www.w3.org/2000/svg">
  <g fill="none" fill-rule="evenodd" opacity=".465">
    <path d="M44.38 17.956c.327-.206.583-.257.767-.155.184.104.112.392-.215.866-.41.556-1.14 1.148-2.191 1.776-1.053.63-1.983.902-2.79.82-.808-.083-1.042-.685-.705-1.809.337-1.122.521-1.75.552-1.884.03-.134.005-.211-.077-.232-.082-.02-.266.072-.552.278a42.144 42.144 0 0 0-2.452 1.823c-.348.269-.685.546-1.012.835-.204.185-.418.37-.643.556l-.03.03a1.818 1.818 0 0 1-.89.495 1.624 1.624 0 0 1-.505.046.662.662 0 0 1-.445-.2c-.143-.144-.194-.294-.153-.448.04-.155.158-.387.352-.696l.644-1.02c.235-.37.368-.597.398-.68.031-.081.016-.164-.045-.247-.062-.081-.134-.108-.215-.077-.082.031-.378.232-.889.602-.511.371-1.206.887-2.084 1.546-.41.31-.808.629-1.196.958a2.19 2.19 0 0 1-.337.278 1.567 1.567 0 0 1-.95.402c-.246.02-.429-.036-.552-.17-.123-.134-.143-.314-.061-.541.06-.165.133-.32.214-.464a.731.731 0 0 0 .092-.185 451.912 451.912 0 0 0 2.177-4.512c.02-.041.04-.092.061-.154.081-.165.164-.32.245-.464.225-.247.49-.329.797-.247.347.103.48.31.399.618-.164.474-.328.938-.491 1.39l-.245.619c-.144.37-.19.608-.138.71.05.104.28.031.69-.216.286-.185.562-.37.827-.556.327-.226.644-.433.95-.618.47-.288.95-.535 1.442-.742.244-.102.495-.18.75-.232a.882.882 0 0 1 .72.17c.164.144.235.305.215.48-.02.175-.072.345-.153.51-.123.308-.174.505-.153.586.02.083.091.098.214.047a6 6 0 0 0 .644-.356c.306-.185.633-.39.98-.618.45-.288.92-.566 1.411-.834a3.114 3.114 0 0 1 1.318-.494c.633-.042.894.221.782.787-.113.568-.338 1.242-.675 2.024-.337.784-.373 1.263-.107 1.438.265.175.853-.067 1.763-.726.909-.66 1.425-1.03 1.548-1.113" fill="#FEFEFE" fill-rule="nonzero"/>
    <path d="M48.993 16.585a2.944 2.944 0 0 0-1.968.652c-.574.455-1 .976-1.276 1.565-.277.59-.354 1.075-.23 1.458.122.382.511.49 1.168.325.738-.227 1.388-.651 1.953-1.271.563-.62.907-1.21 1.03-1.767.123-.559-.103-.879-.677-.962zM46.78 21.64h-.031c-1.353-.02-2.245-.325-2.676-.915-.43-.588-.41-1.369.062-2.34a7.291 7.291 0 0 1 1.476-1.954c.205-.185.415-.336.63-.449.216-.113.457-.17.723-.17.164-.021.349.01.554.093l.185.061a1.22 1.22 0 0 0 .461-.154c.04-.021.092-.042.154-.062a2.26 2.26 0 0 1 .984-.156h.43c.554.083.969.316 1.246.698.276.383.374.842.292 1.38-.04.33-.144.64-.307.93-1.067 1.943-2.43 2.955-4.091 3.038h-.092z" fill="#FEFEFE" fill-rule="nonzero"/>
    <path d="M40.013 14.114h24.761v21.308H40.013z"/>
    <path d="M53.448 20.026c.245.103.598.016 1.057-.263.46-.278.93-.663 1.41-1.158.48-.495.863-1 1.15-1.514.285-.515.357-.948.214-1.298a.827.827 0 0 0-.184-.278c-.143-.185-.306-.273-.49-.263-.184.01-.378.046-.582.108-.675.268-1.273.732-1.793 1.39-.522.66-.87 1.314-1.043 1.963-.173.649-.087 1.087.26 1.313m.92 4.975c.287-.824.409-1.364.368-1.622-.041-.257-.22-.324-.536-.2-.318.123-.731.35-1.242.68-.327.206-.685.411-1.072.617a96.715 96.715 0 0 0-6.867 4.11c-.98.577-1.859 1.277-2.636 2.102-.817.885-.786 1.668.092 2.347.51.413 1.078.701 1.7.866a8.113 8.113 0 0 0 2.07.247 4.536 4.536 0 0 0 2.453-.494c.756-.392 1.45-.979 2.084-1.762.388-.515.756-1.05 1.104-1.607a27.62 27.62 0 0 0 2.482-5.284m9.901-7.54a.57.57 0 0 1 .26 0 .31.31 0 0 1 .2.124.284.284 0 0 1 0 .31.652.652 0 0 1-.276.246c-.838.413-1.675.835-2.514 1.267l-3.004 1.545a4.294 4.294 0 0 0-.428.216c-.225.124-.45.238-.675.34a1.86 1.86 0 0 0-1.011 1.175c-.45 1.277-.92 2.544-1.41 3.8a28.162 28.162 0 0 1-2.36 4.79 10.475 10.475 0 0 1-1.932 2.318c-.899.845-1.931 1.38-3.096 1.607-1.92.391-3.77.267-5.548-.37a4.776 4.776 0 0 1-1.9-1.268c-.716-.783-.747-1.618-.093-2.503.287-.37.603-.721.95-1.051a18.422 18.422 0 0 1 2.576-1.946 121.643 121.643 0 0 1 10.146-5.872h.03a17.99 17.99 0 0 0 1.074-.587c.06-.04.142-.138.244-.293.103-.155.18-.31.23-.464.051-.155.036-.267-.046-.34-.081-.072-.276-.036-.582.108a1.701 1.701 0 0 0-.338.155c-.265.123-.53.237-.796.34-1.594.392-2.391-.226-2.391-1.854a4.895 4.895 0 0 1 .873-2.627 5.714 5.714 0 0 1 2.085-1.838 4.73 4.73 0 0 1 2.743-.51c.102 0 .205.01.307.03.265.042.536.062.812.062s.557-.061.843-.185c.307-.124.536-.088.69.108.153.196.178.448.077.757-.266.577-.532 1.164-.797 1.762-.184.37-.358.752-.522 1.143a83.73 83.73 0 0 0-.552 1.267c-.244.556-.28.85-.107.88.174.031.476-.066.904-.293l.185-.062c.776-.37 1.563-.742 2.36-1.112a59.88 59.88 0 0 0 1.655-.773 7.498 7.498 0 0 1 1.134-.402" fill="#FEFEFE" fill-rule="nonzero"/>
    <path d="M64.207 22.499c-.878 0-1.318-.464-1.318-1.391 0-1.133.725-3.131 2.176-5.995a.317.317 0 0 1 .307-.185c.592 0 .889.237.889.71 0 .166-.052.371-.154.618-.04.062-.531 1.298-1.47 3.708-.144.392-.216.68-.216.866 0 .206.092.309.276.309.675 0 2.453-1.7 5.334-5.099.368-.453.736-.68 1.104-.68.53 0 .797.196.797.588 0 .144-.164.71-.491 1.699-.45 1.34-.674 2.112-.674 2.317 0 .31.102.464.306.464.51 0 2.002-.916 4.475-2.75.143-.124.266-.185.368-.185.225 0 .338.196.338.586 0 .104-.031.186-.092.248-1.308 1.133-2.422 1.998-3.342 2.596-.838.536-1.584.803-2.237.803h-.184c-.96-.206-1.441-.958-1.441-2.256a96.827 96.827 0 0 1-2.544 2.194c-.674.556-1.41.835-2.207.835" fill="#FEFEFE" fill-rule="nonzero"/>
    <g>
      <path d="M75.251 2.007h7.988v20.119h-7.988z"/>
      <path d="M82.047 18.296c.307-.31.562-.484.766-.526.204-.04.338-.01.399.093.061.104.02.247-.123.433a14.344 14.344 0 0 1-2.743 2.565c-1.012.721-2.054 1.138-3.127 1.251-1.073.114-1.722-.479-1.947-1.777-.163-1.277.609-3.888 2.315-7.833 1.706-3.945 3.06-7.174 4.061-9.688.082-.226.205-.422.368-.587.225-.226.49-.278.797-.154a.948.948 0 0 1 .307.216c.102.103.133.29.092.556-4.394 10.507-6.52 16.219-6.376 17.135.143.917.73 1.144 1.762.68 1.032-.464 1.83-.937 2.391-1.422.562-.484.915-.798 1.058-.942" fill="#FEFEFE" fill-rule="nonzero"/>
    </g>
    <g>
      <path d="M15.774.268l-4.821 4.754L6.132.268H0l.024.024v21.554h.023l10.246-10.115-3.071-3.03-2.862 2.823V4.567l3.527 3.479-.014.013 3.072 3.03.014-.014.007.008 3.066-3.023-.01-.01L17.57 4.55v6.999l-2.886-2.846-3.066 3.024 5.952 5.868v.001l4.31 4.251h.025V.268z"/>
      <path fill="#A5A5A5" fill-rule="nonzero" d="M15.774.268l-4.821 4.754L6.132.268H0l.024.024v21.554h.023l10.246-10.115-3.071-3.03-2.862 2.823V4.567l3.527 3.479-.014.013 3.072 3.03.014-.014.007.008 3.066-3.023-.01-.01L17.57 4.55v6.999l-2.886-2.846-3.066 3.024 5.952 5.868v.001l4.31 4.251h.025V.268z"/>
    </g>
  </g>
</svg>
