<svg width="119" height="51" xmlns="http://www.w3.org/2000/svg">
  <g fill="none" fill-rule="evenodd">
    <path d="M63.4 25.526c.467-.29.833-.363 1.095-.218.263.146.16.553-.306 1.221-.585.786-1.628 1.622-3.131 2.509-1.504.887-2.832 1.272-3.985 1.156-1.154-.116-1.489-.966-1.007-2.552.481-1.584.744-2.472.788-2.66.044-.19.007-.3-.11-.329-.117-.029-.38.103-.788.393a60.162 60.162 0 0 0-3.503 2.574c-.497.379-.978.77-1.445 1.178a25.28 25.28 0 0 1-.92.785l-.043.044c-.35.349-.774.582-1.27.698-.234.059-.475.08-.723.065a.95.95 0 0 1-.635-.283c-.204-.204-.278-.414-.219-.633.059-.217.226-.545.504-.981.277-.437.583-.916.92-1.44.335-.524.525-.843.568-.96.045-.115.023-.232-.065-.349-.087-.116-.19-.153-.307-.109-.116.044-.54.327-1.27.85-.73.524-1.722 1.252-2.977 2.182a38.21 38.21 0 0 0-1.708 1.353 3.12 3.12 0 0 1-.481.392c-.41.349-.861.539-1.359.567-.35.03-.612-.05-.788-.24-.175-.189-.204-.442-.087-.763.087-.232.19-.45.306-.655.06-.086.103-.174.132-.261a634.77 634.77 0 0 0 3.11-6.37c.028-.058.057-.13.087-.218.116-.233.234-.45.35-.654.321-.349.7-.465 1.138-.349.497.146.686.436.57.872-.234.67-.468 1.324-.701 1.964l-.35.872c-.205.523-.27.859-.197 1.003.072.146.401.044.985-.305.409-.262.803-.523 1.182-.785.467-.32.92-.61 1.358-.873a15.19 15.19 0 0 1 2.059-1.046c.349-.146.707-.255 1.072-.328.364-.072.707.007 1.029.24.233.203.335.43.307.676a2.18 2.18 0 0 1-.22.72c-.175.436-.248.713-.218.829.028.117.13.138.306.066.175-.073.482-.24.92-.502.437-.262.905-.552 1.401-.873a33.706 33.706 0 0 1 2.015-1.178 4.48 4.48 0 0 1 1.883-.697c.903-.059 1.276.312 1.116 1.111-.16.801-.482 1.754-.964 2.858-.481 1.106-.533 1.782-.152 2.029.379.248 1.218-.094 2.517-1.025a171.21 171.21 0 0 1 2.212-1.571" fill="#FEFEFE" fill-rule="nonzero"/>
    <path d="M69.99 23.591a4.238 4.238 0 0 0-2.811.92c-.821.642-1.429 1.378-1.824 2.21-.395.832-.505 1.518-.329 2.057.176.54.731.694 1.67.46 1.054-.321 1.983-.92 2.789-1.795.805-.875 1.296-1.707 1.471-2.495.177-.788-.146-1.24-.966-1.357zm-3.163 7.135h-.044c-1.933-.029-3.207-.46-3.823-1.292-.614-.83-.585-1.932.089-3.304a10.306 10.306 0 0 1 2.108-2.758c.293-.262.593-.474.9-.634a2.2 2.2 0 0 1 1.033-.24c.234-.03.498.014.791.13.088.03.176.06.264.088.234-.029.453-.102.66-.219.057-.029.13-.058.219-.087a3.262 3.262 0 0 1 1.406-.22h.615c.79.118 1.383.446 1.779.985.395.54.534 1.19.417 1.949a3.484 3.484 0 0 1-.439 1.312c-1.524 2.744-3.471 4.173-5.844 4.29h-.13z" fill="#FEFEFE" fill-rule="nonzero"/>
    <path d="M57.161 20.102h35.373v30.082H57.161z"/>
    <path d="M76.354 28.449c.35.145.854.021 1.511-.371.657-.393 1.328-.938 2.014-1.635.686-.7 1.233-1.411 1.642-2.139.408-.726.51-1.337.307-1.832a1.167 1.167 0 0 0-.263-.392c-.205-.262-.438-.385-.7-.371a3.63 3.63 0 0 0-.833.153c-.963.378-1.817 1.032-2.561 1.962-.745.932-1.242 1.855-1.49 2.771-.247.916-.124 1.534.373 1.854m1.313 7.023c.41-1.163.584-1.925.526-2.29-.059-.363-.314-.457-.766-.283-.454.175-1.045.494-1.773.96-.468.291-.98.581-1.533.872a138.517 138.517 0 0 0-9.81 5.802 16.947 16.947 0 0 0-3.765 2.967c-1.168 1.25-1.124 2.355.131 3.315.73.582 1.54.989 2.43 1.222.892.232 1.876.348 2.956.348 1.255.088 2.424-.145 3.504-.698 1.08-.552 2.073-1.38 2.977-2.486a31.064 31.064 0 0 0 1.577-2.27 38.786 38.786 0 0 0 3.546-7.459m14.145-10.644a.824.824 0 0 1 .372 0c.131.03.226.087.285.174a.397.397 0 0 1 0 .437.927.927 0 0 1-.394.349 204.902 204.902 0 0 0-3.591 1.788l-4.292 2.182c-.204.087-.409.189-.613.305-.321.175-.642.335-.963.48-.73.349-1.212.902-1.445 1.657a169.068 169.068 0 0 1-2.015 5.367 39.568 39.568 0 0 1-3.371 6.762 14.831 14.831 0 0 1-2.76 3.272c-1.284 1.192-2.758 1.947-4.421 2.268-2.745.553-5.387.378-7.927-.523a6.829 6.829 0 0 1-2.715-1.79c-1.021-1.105-1.066-2.283-.132-3.533.41-.523.862-1.018 1.358-1.484a26.291 26.291 0 0 1 3.68-2.748c4.7-2.994 9.53-5.758 14.493-8.288h.044a25.795 25.795 0 0 0 1.533-.83c.087-.057.203-.195.35-.413.146-.219.255-.437.328-.655.073-.219.05-.378-.066-.48-.116-.102-.394-.05-.831.153-.176.058-.336.13-.483.218-.379.174-.759.335-1.138.48-2.277.553-3.415-.32-3.415-2.617a6.856 6.856 0 0 1 1.247-3.709 8.133 8.133 0 0 1 2.979-2.596c1.21-.625 2.517-.865 3.919-.72.145 0 .291.016.437.044.38.06.767.088 1.16.088.395 0 .796-.088 1.205-.262.438-.175.766-.124.985.153.22.276.255.632.11 1.069-.38.814-.76 1.642-1.138 2.486-.263.523-.511 1.062-.746 1.614-.262.582-.525 1.179-.788 1.789-.349.785-.4 1.2-.152 1.243.247.043.678-.094 1.29-.414l.264-.088a367.893 367.893 0 0 1 3.372-1.57c.788-.35 1.577-.713 2.365-1.09.525-.233 1.065-.422 1.62-.568" fill="#FEFEFE" fill-rule="nonzero"/>
    <path d="M91.724 31.94c-1.255 0-1.882-.656-1.882-1.964 0-1.6 1.035-4.42 3.108-8.464a.453.453 0 0 1 .438-.261c.846 0 1.27.334 1.27 1.003 0 .233-.073.524-.219.873-.059.087-.76 1.832-2.102 5.235-.205.553-.307.96-.307 1.221 0 .292.132.436.395.436.963 0 3.503-2.399 7.62-7.197.525-.64 1.05-.96 1.576-.96.758 0 1.139.276 1.139.829 0 .203-.235 1.003-.701 2.399-.643 1.89-.963 2.982-.963 3.272 0 .436.145.654.437.654.729 0 2.86-1.294 6.393-3.882.204-.175.38-.262.526-.262.32 0 .482.277.482.828a.47.47 0 0 1-.132.35c-1.868 1.6-3.46 2.821-4.773 3.664-1.197.757-2.263 1.134-3.197 1.134h-.262c-1.373-.29-2.059-1.352-2.059-3.184a137.885 137.885 0 0 1-3.634 3.097c-.963.785-2.014 1.178-3.153 1.178" fill="#FEFEFE" fill-rule="nonzero"/>
    <g>
      <path d="M107.502 3.01h11.411v28.403h-11.411z"/>
      <path d="M117.21 26.006c.438-.436.802-.683 1.095-.742.29-.058.481-.014.57.13.086.147.028.35-.177.612a20.397 20.397 0 0 1-3.918 3.62c-1.446 1.02-2.934 1.608-4.468 1.767-1.532.16-2.459-.676-2.78-2.508-.233-1.803.869-5.489 3.307-11.059 2.437-5.569 4.37-10.128 5.802-13.676.116-.32.291-.596.525-.83.32-.318.701-.392 1.139-.217.146.058.29.16.438.305.145.146.19.408.131.785-6.277 14.833-9.313 22.897-9.108 24.19.204 1.295 1.043 1.615 2.517.96 1.474-.654 2.613-1.323 3.416-2.007.803-.683 1.307-1.126 1.51-1.33" fill="#FEFEFE" fill-rule="nonzero"/>
    </g>
    <g>
      <path d="M22.227.378l-6.793 6.698L8.64.378H0L.033.41v30.372h.033L14.504 16.53l-4.328-4.269-4.033 3.977V6.436l4.97 4.901-.019.018 4.328 4.27.02-.02.01.012 4.32-4.26-.013-.014 4.998-4.934v9.863l-4.066-4.01-4.32 4.26 8.386 8.27v.001l6.074 5.99h.035V.378z"/>
      <path fill="#DBA628" fill-rule="nonzero" d="M22.227.378l-6.793 6.698L8.64.378H0L.033.41v30.372h.033L14.504 16.53l-4.328-4.269-4.033 3.977V6.436l4.97 4.901-.019.018 4.328 4.27.02-.02.01.012 4.32-4.26-.013-.014 4.998-4.934v9.863l-4.066-4.01-4.32 4.26 8.386 8.27v.001l6.074 5.99h.035V.378z"/>
    </g>
  </g>
</svg>
